<svg version="1.1" viewBox="0.0 0.0 309.51443569553805 117.99212598425197" fill="none" stroke="none" stroke-linecap="square" stroke-miterlimit="10" xmlns:xlink="http://www.w3.org/1999/xlink" xmlns="http://www.w3.org/2000/svg"><clipPath id="p.0"><path d="m0 0l309.51443 0l0 117.99213l-309.51443 0l0 -117.99213z" clip-rule="nonzero"/></clipPath><g clip-path="url(#p.0)"><path fill="#000000" fill-opacity="0.0" d="m0 0l309.51443 0l0 117.99213l-309.51443 0z" fill-rule="evenodd"/><path fill="#161b59" d="m169.1002 65.6709l-0.007873535 -4.433071l-53.936996 -0.054100037l-0.01574707 -8.866142l53.936996 0.054100037l-0.007873535 -4.433071l8.881897 8.875034z" fill-rule="evenodd"/><path stroke="#000000" stroke-width="1.0" stroke-linejoin="round" stroke-linecap="butt" d="m169.1002 65.6709l-0.007873535 -4.433071l-53.936996 -0.054100037l-0.01574707 -8.866142l53.936996 0.054100037l-0.007873535 -4.433071l8.881897 8.875034z" fill-rule="evenodd"/><path fill="#c8f1ff" d="m1.8700787 20.404564l0 0c0 -10.045696 8.143644 -18.18934 18.18934 -18.18934l91.87329 0c4.824112 0 9.450638 1.9163716 12.861801 5.3275347c3.4111633 3.4111629 5.32753 8.037693 5.32753 12.861807l0 72.75518c0 10.045692 -8.143639 18.189339 -18.189331 18.189339l-91.87329 0c-10.045696 0 -18.18934 -8.143646 -18.18934 -18.189339z" fill-rule="evenodd"/><path stroke="#161b59" stroke-width="2.0" stroke-linejoin="round" stroke-linecap="butt" d="m1.8700787 20.404564l0 0c0 -10.045696 8.143644 -18.18934 18.18934 -18.18934l91.87329 0c4.824112 0 9.450638 1.9163716 12.861801 5.3275347c3.4111633 3.4111629 5.32753 8.037693 5.32753 12.861807l0 72.75518c0 10.045692 -8.143639 18.189339 -18.189331 18.189339l-91.87329 0c-10.045696 0 -18.18934 -8.143646 -18.18934 -18.189339z" fill-rule="evenodd"/><path fill="#161b59" d="m29.087797 42.38965q3.031252 0 4.656252 1.609375q1.640625 1.59375 1.640625 4.734375q0 3.515625 -1.625 5.25q-1.609375 1.71875 -4.671877 1.71875l-4.671875 0l0 -13.3125l4.671875 0zm0.109375 11.8125q2.0 0 3.203127 -1.296875q1.21875 -1.296875 1.21875 -3.9375q0 -2.640625 -1.109375 -3.859375q-1.0937519 -1.234375 -3.250002 -1.234375l-3.078125 0l0 10.328125l3.015625 0zm12.901522 -8.375q0.046875 0 0.09375 0q0.046875 0 0.125 0.015625l0 1.671875q-1.796875 0 -2.65625 0.953125q-0.84375 0.9375 -0.84375 2.921875l0 4.3125l-1.578125 0l0 -9.640625l1.484375 0l0 2.03125l0.046875 0q0.546875 -1.15625 1.359375 -1.703125q0.828125 -0.5625 1.96875 -0.5625zm2.993927 0.234375l0 6.578125q0 0.8125 0.515625 1.359375q0.53125 0.53125 1.453125 0.53125q1.359375 0 2.09375 -0.828125q0.75 -0.84375 0.75 -2.140625l0 -5.5l1.59375 0l0 9.640625l-1.5 0l0 -1.53125l-0.03125 0q-0.53125 0.921875 -1.328125 1.34375q-0.796875 0.421875 -1.8125 0.421875q-1.6875 0 -2.515625 -0.875q-0.8125 -0.875 -0.8125 -2.578125l0 -6.421875l1.59375 0zm13.547592 -0.21875q2.0625 0 3.25 1.421875q1.1875 1.421875 1.1875 3.640625q0 2.25 -1.1875 3.640625q-1.171875 1.390625 -3.203125 1.390625q-0.90625 0 -1.765625 -0.375q-0.859375 -0.375 -1.359375 -1.140625l-0.046875 0l0 4.984375l-1.578125 0l0 -13.34375l1.578125 0l0 1.3125l0.046875 0q0.375 -0.75 1.171875 -1.140625q0.8125 -0.390625 1.90625 -0.390625zm-3.171875 5.03125q0 1.671875 0.8125 2.671875q0.8125 0.984375 2.234375 0.984375q1.375 0 2.125 -0.984375q0.75 -0.984375 0.75 -2.75q0 -1.546875 -0.796875 -2.546875q-0.796875 -1.015625 -2.1875 -1.015625q-1.40625 0 -2.171875 1.015625q-0.765625 1.015625 -0.765625 2.625zm13.418304 -5.03125q1.96875 0 2.78125 0.703125q0.828125 0.6875 0.828125 1.875q0 5.015625 0 5.5625q0 0.546875 0.5 0.546875q0.109375 0 0.234375 -0.03125q0.140625 -0.03125 0.25 -0.0625l0 1.234375q-0.21875 0.125 -0.5 0.1875q-0.28125 0.078125 -0.625 0.078125q-0.65625 0 -1.0 -0.375q-0.34375 -0.375 -0.34375 -1.125q-0.640625 0.75 -1.5 1.125q-0.84375 0.375 -1.90625 0.375q-1.484375 0 -2.34375 -0.703125q-0.84375 -0.71875 -0.84375 -2.015625q0 -1.296875 0.828125 -2.046875q0.828125 -0.765625 3.90625 -1.15625q1.03125 -0.140625 1.390625 -0.390625q0.375 -0.265625 0.375 -0.796875q0 -0.796875 -0.515625 -1.1875q-0.5 -0.40625 -1.625 -0.40625q-1.171875 0 -1.765625 0.453125q-0.59375 0.4375 -0.640625 1.375l-1.578125 0q0.078125 -1.609375 1.125 -2.40625q1.0625 -0.8125 2.96875 -0.8125zm-2.796875 7.265625q0 0.671875 0.484375 1.046875q0.5 0.375 1.390625 0.375q1.34375 0 2.140625 -0.65625q0.796875 -0.671875 0.796875 -1.5l0 -1.65625q-0.390625 0.28125 -1.03125 0.390625q-0.640625 0.09375 -1.703125 0.234375q-1.046875 0.15625 -1.5625 0.578125q-0.515625 0.421875 -0.515625 1.1875zm10.551697 -10.71875l0 13.3125l-1.59375 0l0 -13.3125l1.59375 0zm11.4375 0.078125q2.296875 0 3.40625 1.578125q1.125 1.578125 1.125 4.765625q0 3.640625 -1.15625 5.390625q-1.140625 1.734375 -3.4375 1.734375q-1.703125 0 -2.78125 -0.875q-1.0625 -0.875 -1.234375 -2.546875l1.59375 0q0.125 0.96875 0.796875 1.5q0.671875 0.515625 1.625 0.515625q1.453125 0 2.171875 -1.25q0.734375 -1.265625 0.8125 -3.859375l-0.03125 -0.046875q-0.46875 0.859375 -1.28125 1.34375q-0.796875 0.484375 -1.796875 0.484375q-1.9375 0 -3.046875 -1.1875q-1.109375 -1.1875 -1.109375 -3.234375q0 -1.875 1.21875 -3.09375q1.21875 -1.21875 3.125 -1.21875zm-2.671875 4.53125q0 1.140625 0.765625 1.984375q0.765625 0.828125 1.84375 0.828125q1.1875 0 1.953125 -0.84375q0.765625 -0.84375 0.765625 -2.078125q0 -1.265625 -0.734375 -2.140625q-0.734375 -0.875 -2.015625 -0.875q-1.203125 0 -1.890625 0.84375q-0.6875 0.84375 -0.6875 2.28125zm11.672592 6.640625l0 2.0625l-2.0625 0l0 -2.0625l2.0625 0zm6.761429 -11.171875q1.109375 0 1.921875 0.375q0.8125 0.359375 1.375 1.09375q1.109375 1.421875 1.109375 5.265625q0 1.9375 -0.265625 3.234375q-0.265625 1.296875 -0.84375 2.03125q-0.546875 0.71875 -1.375 1.09375q-0.8125 0.375 -1.921875 0.375q-2.203125 0 -3.296875 -1.484375q-1.109375 -1.46875 -1.109375 -5.25q0 -3.796875 1.109375 -5.25q1.109375 -1.484375 3.296875 -1.484375zm-2.734375 6.71875q0 1.59375 0.171875 2.640625q0.1875 1.03125 0.53125 1.59375q0.703125 1.109375 2.03125 1.109375q1.46875 0 2.109375 -1.265625q0.3125 -0.65625 0.453125 -1.640625q0.15625 -1.0 0.15625 -2.375q0 -0.46875 -0.015625 -1.046875q0 -0.578125 -0.078125 -1.15625q-0.0625 -0.59375 -0.234375 -1.15625q-0.15625 -0.578125 -0.453125 -1.015625q-0.3125 -0.4375 -0.78125 -0.71875q-0.46875 -0.28125 -1.171875 -0.28125q-0.640625 0 -1.140625 0.265625q-0.5 0.265625 -0.859375 0.8125q-0.71875 1.078125 -0.71875 4.234375z" fill-rule="nonzero"/><path fill="#161b59" d="m44.323204 63.066525l0 7.187504q0 1.125 -0.71875 1.84375q-0.703125 0.71875 -2.09375 0.71875q-1.28125 0 -2.03125 -0.671875q-0.734375 -0.6875 -0.734375 -2.359375l0 -0.328125l1.265625 0l0 0.28125q0 1.171875 0.375 1.59375q0.390625 0.40625 1.15625 0.40625q0.78125 0 1.140625 -0.40625q0.375 -0.421875 0.375 -1.25l0 -7.015629l1.265625 0zm3.0272522 2.6250038l0 4.703125q0 0.578125 0.375 0.96875q0.375 0.375 1.03125 0.375q0.96875 0 1.5 -0.59375q0.53125 -0.59375 0.53125 -1.515625l0 -3.9375l1.140625 0l0 6.890625l-1.0625 0l0 -1.09375l-0.03125 0q-0.375 0.65625 -0.953125 0.953125q-0.5625 0.296875 -1.296875 0.296875q-1.203125 0 -1.78125 -0.609375q-0.578125 -0.625 -0.578125 -1.84375l0 -4.59375l1.125 0zm9.615601 -0.15625q1.25 0 1.8125 0.640625q0.5625 0.640625 0.5625 1.8125l0 4.59375l-1.140625 0l0 -4.703125q0 -0.59375 -0.375 -0.96875q-0.375 -0.375 -1.03125 -0.375q-0.953125 0 -1.5 0.59375q-0.53125 0.578125 -0.53125 1.515625l0 3.9375l-1.125 0l0 -6.890625l1.0625 0l0 1.09375l0.03125 0q0.375 -0.640625 0.921875 -0.9375q0.546875 -0.3125 1.3125 -0.3125zm10.552963 -2.4062538q1.3125 0 2.140625 0.75q0.828125 0.7343788 0.828125 1.9687538q0 0.984375 -0.546875 1.78125q-0.546875 0.78125 -2.328125 1.796875q-1.078125 0.625 -1.53125 1.125q-0.453125 0.484375 -0.546875 1.03125l4.84375 0l0 1.0l-6.171875 0q0.109375 -1.171875 0.609375 -2.0625q0.515625 -0.890625 1.921875 -1.71875q1.640625 -1.015625 2.078125 -1.578125q0.453125 -0.578125 0.453125 -1.375q0 -0.75 -0.515625 -1.234375q-0.515625 -0.484375 -1.296875 -0.484375q-0.859375 0 -1.359375 0.640625q-0.484375 0.640625 -0.484375 1.609375l0 0.09375l-1.140625 0l0 -0.234375q0 -1.40625 0.828125 -2.2500038q0.84375 -0.859375 2.21875 -0.859375zm7.4906006 0q0.796875 0 1.375 0.265625q0.578125 0.25 0.984375 0.7812538q0.796875 1.015625 0.796875 3.765625q0 1.375 -0.203125 2.3125q-0.1875 0.921875 -0.59375 1.453125q-0.390625 0.5 -0.984375 0.765625q-0.578125 0.265625 -1.375 0.265625q-1.578125 0 -2.359375 -1.046875q-0.78125 -1.0625 -0.78125 -3.75q0 -2.71875 0.78125 -3.75q0.796875 -1.0625038 2.359375 -1.0625038zm-1.953125 4.796879q0 1.140625 0.125 1.890625q0.140625 0.734375 0.375 1.140625q0.5 0.78125 1.453125 0.78125q1.046875 0 1.515625 -0.90625q0.21875 -0.453125 0.328125 -1.15625q0.109375 -0.71875 0.109375 -1.703125q0 -0.34375 -0.015625 -0.75q0 -0.40625 -0.0625 -0.828125q-0.046875 -0.421875 -0.171875 -0.828125q-0.109375 -0.40625 -0.3125 -0.71875q-0.21875 -0.3125 -0.5625 -0.515625q-0.328125 -0.203125 -0.84375 -0.203125q-0.453125 0 -0.8125 0.203125q-0.34375 0.1875 -0.609375 0.578125q-0.515625 0.765625 -0.515625 3.015625zm9.287476 -4.796879q1.3125 0 2.140625 0.75q0.828125 0.7343788 0.828125 1.9687538q0 0.984375 -0.546875 1.78125q-0.546875 0.78125 -2.328125 1.796875q-1.078125 0.625 -1.53125 1.125q-0.453125 0.484375 -0.546875 1.03125l4.84375 0l0 1.0l-6.171875 0q0.109375 -1.171875 0.609375 -2.0625q0.515625 -0.890625 1.921875 -1.71875q1.640625 -1.015625 2.078125 -1.578125q0.453125 -0.578125 0.453125 -1.375q0 -0.75 -0.515625 -1.234375q-0.515625 -0.484375 -1.296875 -0.484375q-0.859375 0 -1.359375 0.640625q-0.484375 0.640625 -0.484375 1.609375l0 0.09375l-1.140625 0l0 -0.234375q0 -1.40625 0.828125 -2.2500038q0.84375 -0.859375 2.21875 -0.859375zm7.4906006 0q0.796875 0 1.375 0.265625q0.578125 0.25 0.984375 0.7812538q0.796875 1.015625 0.796875 3.765625q0 1.375 -0.203125 2.3125q-0.1875 0.921875 -0.59375 1.453125q-0.390625 0.5 -0.984375 0.765625q-0.578125 0.265625 -1.375 0.265625q-1.578125 0 -2.359375 -1.046875q-0.78125 -1.0625 -0.78125 -3.75q0 -2.71875 0.78125 -3.75q0.796875 -1.0625038 2.359375 -1.0625038zm-1.953125 4.796879q0 1.140625 0.125 1.890625q0.140625 0.734375 0.375 1.140625q0.5 0.78125 1.453125 0.78125q1.046875 0 1.515625 -0.90625q0.21875 -0.453125 0.328125 -1.15625q0.109375 -0.71875 0.109375 -1.703125q0 -0.34375 -0.015625 -0.75q0 -0.40625 -0.0625 -0.828125q-0.046875 -0.421875 -0.171875 -0.828125q-0.109375 -0.40625 -0.3125 -0.71875q-0.21875 -0.3125 -0.5625 -0.515625q-0.328125 -0.203125 -0.84375 -0.203125q-0.453125 0 -0.8125 0.203125q-0.34375 0.1875 -0.609375 0.578125q-0.515625 0.765625 -0.515625 3.015625z" fill-rule="nonzero"/><path fill="#c8f1ff" d="m177.96457 20.404564l0 0c0 -10.045696 8.143646 -18.18934 18.189331 -18.18934l91.87329 0c4.824127 0 9.450653 1.9163716 12.861816 5.3275347c3.4111633 3.4111629 5.3275146 8.037693 5.3275146 12.861807l0 72.75518c0 10.045692 -8.143646 18.189339 -18.189331 18.189339l-91.87329 0c-10.045685 0 -18.189331 -8.143646 -18.189331 -18.189339z" fill-rule="evenodd"/><path stroke="#161b59" stroke-width="2.0" stroke-linejoin="round" stroke-linecap="butt" d="m177.96457 20.404564l0 0c0 -10.045696 8.143646 -18.18934 18.189331 -18.18934l91.87329 0c4.824127 0 9.450653 1.9163716 12.861816 5.3275347c3.4111633 3.4111629 5.3275146 8.037693 5.3275146 12.861807l0 72.75518c0 10.045692 -8.143646 18.189339 -18.189331 18.189339l-91.87329 0c-10.045685 0 -18.189331 -8.143646 -18.189331 -18.189339z" fill-rule="evenodd"/><path fill="#161b59" d="m199.99443 42.38965q3.03125 0 4.65625 1.609375q1.640625 1.59375 1.640625 4.734375q0 3.515625 -1.625 5.25q-1.609375 1.71875 -4.671875 1.71875l-4.671875 0l0 -13.3125l4.671875 0zm0.109375 11.8125q2.0 0 3.203125 -1.296875q1.21875 -1.296875 1.21875 -3.9375q0 -2.640625 -1.109375 -3.859375q-1.09375 -1.234375 -3.25 -1.234375l-3.078125 0l0 10.328125l3.015625 0zm12.90152 -8.375q0.046875 0 0.09375 0q0.046875 0 0.125 0.015625l0 1.671875q-1.796875 0 -2.65625 0.953125q-0.84375 0.9375 -0.84375 2.921875l0 4.3125l-1.578125 0l0 -9.640625l1.484375 0l0 2.03125l0.046875 0q0.546875 -1.15625 1.359375 -1.703125q0.828125 -0.5625 1.96875 -0.5625zm2.993927 0.234375l0 6.578125q0 0.8125 0.515625 1.359375q0.53125 0.53125 1.453125 0.53125q1.359375 0 2.09375 -0.828125q0.75 -0.84375 0.75 -2.140625l0 -5.5l1.59375 0l0 9.640625l-1.5 0l0 -1.53125l-0.03125 0q-0.53125 0.921875 -1.328125 1.34375q-0.796875 0.421875 -1.8125 0.421875q-1.6875 0 -2.515625 -0.875q-0.8125 -0.875 -0.8125 -2.578125l0 -6.421875l1.59375 0zm13.547592 -0.21875q2.0625 0 3.25 1.421875q1.1875 1.421875 1.1875 3.640625q0 2.25 -1.1875 3.640625q-1.171875 1.390625 -3.203125 1.390625q-0.90625 0 -1.765625 -0.375q-0.859375 -0.375 -1.359375 -1.140625l-0.046875 0l0 4.984375l-1.578125 0l0 -13.34375l1.578125 0l0 1.3125l0.046875 0q0.375 -0.75 1.171875 -1.140625q0.8125 -0.390625 1.90625 -0.390625zm-3.171875 5.03125q0 1.671875 0.8125 2.671875q0.8125 0.984375 2.234375 0.984375q1.375 0 2.125 -0.984375q0.75 -0.984375 0.75 -2.75q0 -1.546875 -0.796875 -2.546875q-0.796875 -1.015625 -2.1875 -1.015625q-1.40625 0 -2.171875 1.015625q-0.765625 1.015625 -0.765625 2.625zm13.418304 -5.03125q1.96875 0 2.78125 0.703125q0.828125 0.6875 0.828125 1.875q0 5.015625 0 5.5625q0 0.546875 0.5 0.546875q0.109375 0 0.234375 -0.03125q0.140625 -0.03125 0.25 -0.0625l0 1.234375q-0.21875 0.125 -0.5 0.1875q-0.28125 0.078125 -0.625 0.078125q-0.65625 0 -1.0 -0.375q-0.34375 -0.375 -0.34375 -1.125q-0.640625 0.75 -1.5 1.125q-0.84375 0.375 -1.90625 0.375q-1.484375 0 -2.34375 -0.703125q-0.84375 -0.71875 -0.84375 -2.015625q0 -1.296875 0.828125 -2.046875q0.828125 -0.765625 3.90625 -1.15625q1.03125 -0.140625 1.390625 -0.390625q0.375 -0.265625 0.375 -0.796875q0 -0.796875 -0.515625 -1.1875q-0.5 -0.40625 -1.625 -0.40625q-1.171875 0 -1.765625 0.453125q-0.59375 0.4375 -0.640625 1.375l-1.578125 0q0.078125 -1.609375 1.125 -2.40625q1.0625 -0.8125 2.96875 -0.8125zm-2.796875 7.265625q0 0.671875 0.484375 1.046875q0.5 0.375 1.390625 0.375q1.34375 0 2.140625 -0.65625q0.796875 -0.671875 0.796875 -1.5l0 -1.65625q-0.390625 0.28125 -1.03125 0.390625q-0.640625 0.09375 -1.703125 0.234375q-1.046875 0.15625 -1.5625 0.578125q-0.515625 0.421875 -0.515625 1.1875zm10.551697 -10.71875l0 13.3125l-1.59375 0l0 -13.3125l1.59375 0zm13.09375 0.078125l0 13.234375l-1.578125 0l0 -9.46875l-3.4375 0l0 -1.28125l0.046875 0q1.6875 0 2.59375 -0.59375q0.921875 -0.609375 1.15625 -1.890625l1.21875 0zm8.922577 0q1.109375 0 1.921875 0.375q0.8125 0.359375 1.375 1.09375q1.109375 1.421875 1.109375 5.265625q0 1.9375 -0.265625 3.234375q-0.265625 1.296875 -0.84375 2.03125q-0.546875 0.71875 -1.375 1.09375q-0.8125 0.375 -1.921875 0.375q-2.203125 0 -3.296875 -1.484375q-1.109375 -1.46875 -1.109375 -5.25q0 -3.796875 1.109375 -5.25q1.109375 -1.484375 3.296875 -1.484375zm-2.734375 6.71875q0 1.59375 0.171875 2.640625q0.1875 1.03125 0.53125 1.59375q0.703125 1.109375 2.03125 1.109375q1.46875 0 2.109375 -1.265625q0.3125 -0.65625 0.453125 -1.640625q0.15625 -1.0 0.15625 -2.375q0 -0.46875 -0.015625 -1.046875q0 -0.578125 -0.078125 -1.15625q-0.0625 -0.59375 -0.234375 -1.15625q-0.15625 -0.578125 -0.453125 -1.015625q-0.3125 -0.4375 -0.78125 -0.71875q-0.46875 -0.28125 -1.171875 -0.28125q-0.640625 0 -1.140625 0.265625q-0.5 0.265625 -0.859375 0.8125q-0.71875 1.078125 -0.71875 4.234375zm11.531982 4.453125l0 2.0625l-2.0625 0l0 -2.0625l2.0625 0zm6.7614136 -11.171875q1.109375 0 1.921875 0.375q0.8125 0.359375 1.375 1.09375q1.109375 1.421875 1.109375 5.265625q0 1.9375 -0.265625 3.234375q-0.265625 1.296875 -0.84375 2.03125q-0.546875 0.71875 -1.375 1.09375q-0.8125 0.375 -1.921875 0.375q-2.203125 0 -3.296875 -1.484375q-1.109375 -1.46875 -1.109375 -5.25q0 -3.796875 1.109375 -5.25q1.109375 -1.484375 3.296875 -1.484375zm-2.734375 6.71875q0 1.59375 0.171875 2.640625q0.1875 1.03125 0.53125 1.59375q0.703125 1.109375 2.03125 1.109375q1.46875 0 2.109375 -1.265625q0.3125 -0.65625 0.453125 -1.640625q0.15625 -1.0 0.15625 -2.375q0 -0.46875 -0.015625 -1.046875q0 -0.578125 -0.078125 -1.15625q-0.0625 -0.59375 -0.234375 -1.15625q-0.15625 -0.578125 -0.453125 -1.015625q-0.3125 -0.4375 -0.78125 -0.71875q-0.46875 -0.28125 -1.171875 -0.28125q-0.640625 0 -1.140625 0.265625q-0.5 0.265625 -0.859375 0.8125q-0.71875 1.078125 -0.71875 4.234375z" fill-rule="nonzero"/><path fill="#161b59" d="m220.4177 63.066525l0 7.187504q0 1.125 -0.71875 1.84375q-0.703125 0.71875 -2.09375 0.71875q-1.28125 0 -2.03125 -0.671875q-0.734375 -0.6875 -0.734375 -2.359375l0 -0.328125l1.265625 0l0 0.28125q0 1.171875 0.375 1.59375q0.390625 0.40625 1.15625 0.40625q0.78125 0 1.140625 -0.40625q0.375 -0.421875 0.375 -1.25l0 -7.015629l1.265625 0zm3.0272522 2.6250038l0 4.703125q0 0.578125 0.375 0.96875q0.375 0.375 1.03125 0.375q0.96875 0 1.5 -0.59375q0.53125 -0.59375 0.53125 -1.515625l0 -3.9375l1.140625 0l0 6.890625l-1.0625 0l0 -1.09375l-0.03125 0q-0.375 0.65625 -0.953125 0.953125q-0.5625 0.296875 -1.296875 0.296875q-1.203125 0 -1.78125 -0.609375q-0.578125 -0.625 -0.578125 -1.84375l0 -4.59375l1.125 0zm9.615601 -0.15625q1.25 0 1.8125 0.640625q0.5625 0.640625 0.5625 1.8125l0 4.59375l-1.140625 0l0 -4.703125q0 -0.59375 -0.375 -0.96875q-0.375 -0.375 -1.03125 -0.375q-0.953125 0 -1.5 0.59375q-0.53125 0.578125 -0.53125 1.515625l0 3.9375l-1.125 0l0 -6.890625l1.0625 0l0 1.09375l0.03125 0q0.375 -0.640625 0.921875 -0.9375q0.546875 -0.3125 1.3125 -0.3125zm10.552963 -2.4062538q1.3125 0 2.140625 0.75q0.828125 0.7343788 0.828125 1.9687538q0 0.984375 -0.546875 1.78125q-0.546875 0.78125 -2.328125 1.796875q-1.078125 0.625 -1.53125 1.125q-0.453125 0.484375 -0.546875 1.03125l4.84375 0l0 1.0l-6.171875 0q0.109375 -1.171875 0.609375 -2.0625q0.515625 -0.890625 1.921875 -1.71875q1.640625 -1.015625 2.078125 -1.578125q0.453125 -0.578125 0.453125 -1.375q0 -0.75 -0.515625 -1.234375q-0.515625 -0.484375 -1.296875 -0.484375q-0.859375 0 -1.359375 0.640625q-0.484375 0.640625 -0.484375 1.609375l0 0.09375l-1.140625 0l0 -0.234375q0 -1.40625 0.828125 -2.2500038q0.84375 -0.859375 2.21875 -0.859375zm7.4906006 0q0.796875 0 1.375 0.265625q0.578125 0.25 0.984375 0.7812538q0.796875 1.015625 0.796875 3.765625q0 1.375 -0.203125 2.3125q-0.1875 0.921875 -0.59375 1.453125q-0.390625 0.5 -0.984375 0.765625q-0.578125 0.265625 -1.375 0.265625q-1.578125 0 -2.359375 -1.046875q-0.78125 -1.0625 -0.78125 -3.75q0 -2.71875 0.78125 -3.75q0.796875 -1.0625038 2.359375 -1.0625038zm-1.953125 4.796879q0 1.140625 0.125 1.890625q0.140625 0.734375 0.375 1.140625q0.5 0.78125 1.453125 0.78125q1.046875 0 1.515625 -0.90625q0.21875 -0.453125 0.328125 -1.15625q0.109375 -0.71875 0.109375 -1.703125q0 -0.34375 -0.015625 -0.75q0 -0.40625 -0.0625 -0.828125q-0.046875 -0.421875 -0.171875 -0.828125q-0.109375 -0.40625 -0.3125 -0.71875q-0.21875 -0.3125 -0.5625 -0.515625q-0.328125 -0.203125 -0.84375 -0.203125q-0.453125 0 -0.8125 0.203125q-0.34375 0.1875 -0.609375 0.578125q-0.515625 0.765625 -0.515625 3.015625zm9.28746 -4.796879q1.3125 0 2.140625 0.75q0.828125 0.7343788 0.828125 1.9687538q0 0.984375 -0.546875 1.78125q-0.546875 0.78125 -2.328125 1.796875q-1.078125 0.625 -1.53125 1.125q-0.453125 0.484375 -0.546875 1.03125l4.84375 0l0 1.0l-6.1718597 0q0.109375 -1.171875 0.609375 -2.0625q0.51560974 -0.890625 1.9218597 -1.71875q1.640625 -1.015625 2.078125 -1.578125q0.453125 -0.578125 0.453125 -1.375q0 -0.75 -0.515625 -1.234375q-0.515625 -0.484375 -1.296875 -0.484375q-0.859375 0 -1.359375 0.640625q-0.484375 0.640625 -0.484375 1.609375l0 0.09375l-1.1406097 0l0 -0.234375q0 -1.40625 0.82810974 -2.2500038q0.84375 -0.859375 2.21875 -0.859375zm7.4124756 0q1.3125 0 2.140625 0.75q0.828125 0.7343788 0.828125 1.9687538q0 0.984375 -0.546875 1.78125q-0.546875 0.78125 -2.328125 1.796875q-1.078125 0.625 -1.53125 1.125q-0.453125 0.484375 -0.546875 1.03125l4.84375 0l0 1.0l-6.171875 0q0.109375 -1.171875 0.609375 -2.0625q0.515625 -0.890625 1.921875 -1.71875q1.640625 -1.015625 2.078125 -1.578125q0.453125 -0.578125 0.453125 -1.375q0 -0.75 -0.515625 -1.234375q-0.515625 -0.484375 -1.296875 -0.484375q-0.859375 0 -1.359375 0.640625q-0.484375 0.640625 -0.484375 1.609375l0 0.09375l-1.140625 0l0 -0.234375q0 -1.40625 0.828125 -2.2500038q0.84375 -0.859375 2.21875 -0.859375z" fill-rule="nonzero"/></g></svg>